#Comment line ignore any data following # character 
#Hierarchical Translation and Rotation (.htr) file 
[Header]	
#Header keywords are followed by a single value 
FileType HTR		#Single word string
DataType HTRS		#Translation followed by rotation and scale data
FileVersion 1		#integer
NumSegments 64		#integer
NumFrames 3		#integer
DataFrameRate 30		#integer, data frame rate in this file
EulerRotationOrder ZYX
CalibrationUnits mm
RotationUnits Degrees
GlobalAxisofGravity Y
BoneLengthAxis Y
ScaleFactor 1.00
[SegmentNames&Hierarchy]
#CHILD	PARENT
Pinger_Root GLOBAL
Pelvis Pinger_Root
L_Hip Pelvis
R_Hip Pelvis
Rear_Leg01 Pelvis
Spine1 Pelvis
L_Leg01 L_Hip
L_Leg02 L_Leg01
L_Leg03 L_Leg02
L_Foot L_Leg03
L_Toe1_01 L_Foot
L_Toe2_01 L_Foot
L_Toe3_01 L_Foot
planeAlignerLeft L_Foot
L_Toe1_02 L_Toe1_01
L_Toe1_03 L_Toe1_02
L_Toe2_02 L_Toe2_01
L_Toe2_03 L_Toe2_02
L_Toe3_02 L_Toe3_01
L_Toe3_03 L_Toe3_02
planeLockWeightLeft planeAlignerLeft
R_Leg01 R_Hip
R_Leg02 R_Leg01
R_Leg03 R_Leg02
R_Foot R_Leg03
planeAlignerRight R_Foot
R_Toe1_01 R_Foot
R_Toe2_01 R_Foot
R_Toe3_01 R_Foot
planeLockWeightRight planeAlignerRight
R_Toe1_02 R_Toe1_01
R_Toe1_03 R_Toe1_02
R_Toe2_02 R_Toe2_01
R_Toe2_03 R_Toe2_02
R_Toe3_02 R_Toe3_01
R_Toe3_03 R_Toe3_02
Rear_Leg02 Rear_Leg01
Rear_Leg03 Rear_Leg02
Rear_Leg04 Rear_Leg03
Rear_Foot Rear_Leg04
planeAlignerCenter Rear_Foot
Rear_Toe1_01 Rear_Foot
Rear_Toe2_01 Rear_Foot
Rear_Toe3_01 Rear_Foot
planeLockWeightCenter planeAlignerCenter
Rear_Toe1_02 Rear_Toe1_01
Rear_Toe1_03 Rear_Toe1_02
Rear_Toe2_02 Rear_Toe2_01
Rear_Toe2_03 Rear_Toe2_02
Rear_Toe3_02 Rear_Toe3_01
Rear_Toe3_03 Rear_Toe3_02
Back_Bone Spine1
Head Spine1
Motor_Bone Back_Bone
Ping_Mechanism Back_Bone
BN_LookIK Head
bottomMouth Head
L_Mouth01 Head
L_mouthFront Head
mouthGun Head
R_Mouth01 Head
R_mouthFront Head
TopMouth Head
weapon_bone Head
[BasePosition]
#SegmentName Tx, Ty, Tz, Rx, Ry, Rz, BoneLength
Pinger_Root 0.000000 0.000000 0.000000 -90.000000 0.000000 0.000000 10.000000 
Pelvis 0.000000 0.000000 0.000000 0.000000 0.000000 0.000000 10.000000 
L_Hip 0.000000 0.000000 0.000000 0.000000 0.000000 0.000000 10.000000 
R_Hip 0.000000 0.000000 0.000000 0.000000 0.000000 0.000000 10.000000 
Rear_Leg01 0.000000 0.000000 0.000000 0.000000 0.000000 0.000000 10.000000 
Spine1 0.000000 0.000000 0.000000 0.000000 0.000000 0.000000 10.000000 
L_Leg01 0.000000 0.000000 0.000000 0.000000 0.000000 0.000000 10.000000 
L_Leg02 0.000000 0.000000 0.000000 0.000000 0.000000 0.000000 10.000000 
L_Leg03 0.000000 0.000000 0.000000 0.000000 0.000000 0.000000 10.000000 
L_Foot 0.000000 0.000000 0.000000 0.000000 0.000000 0.000000 10.000000 
L_Toe1_01 0.000000 0.000000 0.000000 0.000000 0.000000 0.000000 10.000000 
L_Toe2_01 0.000000 0.000000 0.000000 0.000000 0.000000 0.000000 10.000000 
L_Toe3_01 0.000000 0.000000 0.000000 0.000000 0.000000 0.000000 10.000000 
planeAlignerLeft 0.000000 0.000000 0.000000 0.000000 0.000000 0.000000 10.000000 
L_Toe1_02 0.000000 0.000000 0.000000 0.000000 0.000000 0.000000 10.000000 
L_Toe1_03 0.000000 0.000000 0.000000 0.000000 0.000000 0.000000 10.000000 
L_Toe2_02 0.000000 0.000000 0.000000 0.000000 0.000000 0.000000 10.000000 
L_Toe2_03 0.000000 0.000000 0.000000 0.000000 0.000000 0.000000 10.000000 
L_Toe3_02 0.000000 0.000000 0.000000 0.000000 0.000000 0.000000 10.000000 
L_Toe3_03 0.000000 0.000000 0.000000 0.000000 0.000000 0.000000 10.000000 
planeLockWeightLeft 0.000000 0.000000 0.000000 0.000000 0.000000 0.000000 10.000000 
R_Leg01 0.000000 0.000000 0.000000 0.000000 0.000000 0.000000 10.000000 
R_Leg02 0.000000 0.000000 0.000000 0.000000 0.000000 0.000000 10.000000 
R_Leg03 0.000000 0.000000 0.000000 0.000000 0.000000 0.000000 10.000000 
R_Foot 0.000000 0.000000 0.000000 0.000000 0.000000 0.000000 10.000000 
planeAlignerRight 0.000000 0.000000 0.000000 0.000000 0.000000 0.000000 10.000000 
R_Toe1_01 0.000000 0.000000 0.000000 0.000000 0.000000 0.000000 10.000000 
R_Toe2_01 0.000000 0.000000 0.000000 0.000000 0.000000 0.000000 10.000000 
R_Toe3_01 0.000000 0.000000 0.000000 0.000000 0.000000 0.000000 10.000000 
planeLockWeightRight 0.000000 0.000000 0.000000 0.000000 0.000000 0.000000 10.000000 
R_Toe1_02 0.000000 0.000000 0.000000 0.000000 0.000000 0.000000 10.000000 
R_Toe1_03 0.000000 0.000000 0.000000 0.000000 0.000000 0.000000 10.000000 
R_Toe2_02 0.000000 0.000000 0.000000 0.000000 0.000000 0.000000 10.000000 
R_Toe2_03 0.000000 0.000000 0.000000 0.000000 0.000000 0.000000 10.000000 
R_Toe3_02 0.000000 0.000000 0.000000 0.000000 0.000000 0.000000 10.000000 
R_Toe3_03 0.000000 0.000000 0.000000 0.000000 0.000000 0.000000 10.000000 
Rear_Leg02 0.000000 0.000000 0.000000 0.000000 0.000000 0.000000 10.000000 
Rear_Leg03 0.000000 0.000000 0.000000 0.000000 0.000000 0.000000 10.000000 
Rear_Leg04 0.000000 0.000000 0.000000 0.000000 0.000000 0.000000 10.000000 
Rear_Foot 0.000000 0.000000 0.000000 0.000000 0.000000 0.000000 10.000000 
planeAlignerCenter 0.000000 0.000000 0.000000 0.000000 0.000000 0.000000 10.000000 
Rear_Toe1_01 0.000000 0.000000 0.000000 0.000000 0.000000 0.000000 10.000000 
Rear_Toe2_01 0.000000 0.000000 0.000000 0.000000 0.000000 0.000000 10.000000 
Rear_Toe3_01 0.000000 0.000000 0.000000 0.000000 0.000000 0.000000 10.000000 
planeLockWeightCenter 0.000000 0.000000 0.000000 0.000000 0.000000 0.000000 10.000000 
Rear_Toe1_02 0.000000 0.000000 0.000000 0.000000 0.000000 0.000000 10.000000 
Rear_Toe1_03 0.000000 0.000000 0.000000 0.000000 0.000000 0.000000 10.000000 
Rear_Toe2_02 0.000000 0.000000 0.000000 0.000000 0.000000 0.000000 10.000000 
Rear_Toe2_03 0.000000 0.000000 0.000000 0.000000 0.000000 0.000000 10.000000 
Rear_Toe3_02 0.000000 0.000000 0.000000 0.000000 0.000000 0.000000 10.000000 
Rear_Toe3_03 0.000000 0.000000 0.000000 0.000000 0.000000 0.000000 10.000000 
Back_Bone 0.000000 0.000000 0.000000 0.000000 0.000000 0.000000 10.000000 
Head 0.000000 0.000000 0.000000 0.000000 0.000000 0.000000 10.000000 
Motor_Bone 0.000000 0.000000 0.000000 0.000000 0.000000 0.000000 10.000000 
Ping_Mechanism 0.000000 0.000000 0.000000 0.000000 0.000000 0.000000 10.000000 
BN_LookIK 0.000000 0.000000 0.000000 0.000000 0.000000 0.000000 10.000000 
bottomMouth 0.000000 0.000000 0.000000 0.000000 0.000000 0.000000 10.000000 
L_Mouth01 0.000000 0.000000 0.000000 0.000000 0.000000 0.000000 10.000000 
L_mouthFront 0.000000 0.000000 0.000000 0.000000 0.000000 0.000000 10.000000 
mouthGun 0.000000 0.000000 0.000000 0.000000 0.000000 0.000000 10.000000 
R_Mouth01 0.000000 0.000000 0.000000 0.000000 0.000000 0.000000 10.000000 
R_mouthFront 0.000000 0.000000 0.000000 0.000000 0.000000 0.000000 10.000000 
TopMouth 0.000000 0.000000 0.000000 0.000000 0.000000 0.000000 10.000000 
weapon_bone 0.000000 0.000000 0.000000 0.000000 0.000000 0.000000 10.000000 
#Beginning of Data. Separated by tabs
#Fr	Tx	Ty	Tz	Rx	Ry	Rz	SF
[Pinger_Root]
11 -0.000007 -860.058411 0.000000 -0.000075 -0.000000 -0.000020 860.058411
12 -0.000008 -955.043884 0.000000 -0.000075 -0.000000 -0.000020 955.043884
13 -0.000008 -1050.029297 0.000000 -0.000075 -0.000000 -0.000020 1050.029297
[Pelvis]
11 -192.250854 551.983948 4928.583984 65.696297 -77.238075 -70.907333 4963.123047
12 -203.578751 560.368652 4841.923340 53.357327 -77.853531 -57.523361 4878.491211
13 -214.096375 569.053772 4749.602051 44.134598 -77.267975 -46.982777 4788.358398
[L_Hip]
11 5.766392 125.831482 872.656799 -178.253311 -81.787758 87.381340 881.701050
12 5.766392 125.831482 872.656799 -178.253342 -81.787636 87.381248 881.701050
13 5.766392 125.831482 872.656799 -178.253326 -81.787636 87.381203 881.701050
[R_Hip]
11 5.765438 125.836372 -872.654907 -1.746690 81.787712 87.381248 881.699829
12 5.765438 125.836372 -872.654907 -1.746690 81.787666 87.381248 881.699829
13 5.765438 125.836372 -872.654907 -1.746701 81.787666 87.381203 881.699829
[Rear_Leg01]
11 -192.298416 -925.602966 -0.001907 142.013962 10.706260 -134.184784 945.367432
12 -192.298416 -925.602966 -0.001907 137.063873 4.327263 -144.422516 945.367432
13 -192.298416 -925.602966 -0.001907 135.486588 -0.774947 -151.175598 945.367432
[Spine1]
11 290.604584 5.007505 0.000477 4.712556 -7.412024 43.545475 290.647736
12 290.604584 5.007505 0.000477 2.617398 -8.514410 41.953976 290.647736
13 290.604584 5.007505 0.000477 0.314268 -9.346689 41.059269 290.647736
[L_Leg01]
11 761.932007 -0.002384 -0.069261 70.378014 -10.480812 -78.606987 761.932068
12 761.932007 -0.002384 -0.069261 70.524681 -15.329663 -79.935974 761.932068
13 761.932007 -0.002384 -0.069261 70.817055 -19.781166 -81.057724 761.932068
[L_Leg02]
11 1441.140503 -0.000954 -0.000715 -1.362698 0.632087 -107.316063 1441.140503
12 1441.140503 -0.000954 -0.000715 -1.318147 0.599128 -109.723114 1441.140503
13 1441.140503 -0.000954 -0.000715 -1.198649 0.540807 -112.448517 1441.140503
[L_Leg03]
11 1686.963989 -0.000715 -0.000954 0.051874 -0.013161 95.859200 1686.963989
12 1686.963989 -0.000715 -0.000954 0.049426 -0.013484 96.879005 1686.963989
13 1686.963989 -0.000715 -0.000954 0.046973 -0.013763 97.898712 1686.963989
[L_Foot]
11 3041.570068 -30.715107 11.297464 -11.979836 17.152023 70.803009 3041.746094
12 3041.570068 -30.715107 11.297464 -11.695259 17.178461 69.548882 3041.746094
13 3041.570068 -30.715107 11.297464 -11.409348 16.796982 68.491287 3041.746094
[L_Toe1_01]
11 -188.216690 -224.732346 -21.137953 89.345367 -2.035015 -162.412231 293.899567
12 -188.216690 -224.732346 -21.137953 89.325623 -2.006737 -161.925674 293.899567
13 -188.216690 -224.732346 -21.137953 89.306114 -1.978289 -161.439087 293.899567
[L_Toe2_01]
11 200.746536 -219.926590 148.838394 -77.614059 -13.459473 -45.003796 332.896027
12 200.746536 -219.926590 148.838394 -77.531441 -13.436056 -45.347961 332.896027
13 200.746536 -219.926590 148.838394 -77.448959 -13.412158 -45.692070 332.896027
[L_Toe3_01]
11 188.832520 -219.859131 -191.078659 -106.114899 16.627022 -46.882832 347.140900
12 188.832520 -219.859131 -191.078659 -106.224953 16.609240 -47.239609 347.140900
13 188.832520 -219.859131 -191.078659 -106.334908 16.590809 -47.596344 347.140900
[planeAlignerLeft]
11 -49.468388 -624.821899 0.074310 0.000000 -89.972023 -90.028198 626.777100
12 -52.232632 -629.357727 0.073624 0.000000 -90.000000 -90.030869 631.521545
13 -54.996876 -633.893555 0.072937 0.000000 -89.965736 -90.033516 636.274841
[L_Toe1_02]
11 413.761139 0.000477 0.000000 0.001402 -23.738947 0.001402 413.761139
12 413.761139 0.000477 0.000000 0.001400 -23.920025 0.001400 413.761139
13 413.761139 0.000477 0.000000 0.001399 -24.101093 0.001399 413.761139
[L_Toe1_03]
11 464.317322 0.000358 -0.000089 0.008437 74.007904 0.008437 464.317322
12 464.317322 0.000358 -0.000089 0.008015 73.153770 0.008015 464.317322
13 464.317322 0.000358 -0.000089 0.007633 72.299065 0.007633 464.317322
[L_Toe2_02]
11 342.235809 -0.000477 0.000238 0.001179 -78.754898 0.001179 342.235809
12 342.235809 -0.000477 0.000238 0.001179 -78.720993 0.001179 342.235809
13 342.235809 -0.000477 0.000238 0.001179 -78.687126 0.001179 342.235809
[L_Toe2_03]
11 420.210846 -0.000715 0.000000 -179.998032 72.350967 -179.994492 420.210846
12 420.210846 -0.000715 0.000000 -179.998032 72.376495 -179.994476 420.210846
13 420.210846 -0.000715 0.000000 -179.998016 72.402046 -179.994476 420.210846
[L_Toe3_02]
11 329.270111 0.000954 0.000000 0.001176 -82.061676 0.001176 329.270111
12 329.270111 0.000954 0.000000 0.001176 -82.104820 0.001176 329.270111
13 329.270111 0.000954 0.000000 0.001176 -82.148148 0.001176 329.270111
[L_Toe3_03]
11 439.137451 -0.001907 0.000954 -179.998306 70.884262 -179.994766 439.137451
12 439.137451 -0.001907 0.000954 -179.998306 70.875183 -179.994781 439.137451
13 439.137451 -0.001907 0.000954 -179.998306 70.866058 -179.994781 439.137451
[planeLockWeightLeft]
11 1000.000488 -0.000305 -0.000243 -0.011826 -0.004376 0.005620 1000.000488
12 1000.000488 -0.000305 -0.000241 -0.011826 -0.004376 0.005620 1000.000488
13 1000.000488 -0.000305 -0.000240 -0.011826 -0.004376 0.005620 1000.000488
[R_Leg01]
11 761.455627 -0.001907 -0.000358 91.323204 -33.793053 71.521576 761.455688
12 761.455627 -0.001907 -0.000358 92.476006 -46.210056 66.798569 761.455688
13 761.455627 -0.001907 -0.000358 95.627815 -67.868530 59.351273 761.455688
[R_Leg02]
11 1441.140625 0.000000 -0.000238 0.199374 0.004546 -89.254211 1441.140625
12 1441.140625 0.000000 -0.000238 0.164009 -0.044766 -109.795227 1441.140625
13 1441.140625 0.000000 -0.000238 -0.158109 -0.011227 -134.984497 1441.140625
[R_Leg03]
11 1686.963989 0.000954 0.001431 -0.049393 0.013477 96.878242 1686.963989
12 1686.963989 0.000954 0.001431 -0.024658 0.009880 103.141006 1686.963989
13 1686.963989 0.000954 0.001431 -0.038931 0.010145 99.177948 1686.963989
[R_Foot]
11 3041.560059 -30.531288 -11.204481 13.375579 -23.600195 34.539970 3041.734131
12 3041.560059 -30.531288 -11.204481 13.232800 -25.329638 41.644062 3041.734131
13 3041.560059 -30.531288 -11.204481 13.668017 -27.115217 52.037876 3041.734131
[planeAlignerRight]
11 -185.853271 -728.171387 78.596252 0.000000 -89.951546 -90.024025 755.613953
12 -189.519653 -735.608887 76.592209 0.000000 -89.951546 -90.025940 763.481812
13 -193.186050 -743.046326 74.588158 0.000000 -89.951546 -90.027840 771.363831
[R_Toe1_01]
11 -188.383347 -224.864899 21.052242 91.180344 -0.077278 -151.728165 294.101532
12 -188.383347 -224.864899 21.052242 91.119644 2.272221 -144.844223 294.101532
13 -188.383347 -224.864899 21.052242 91.075912 3.904843 -138.663803 294.101532
[R_Toe2_01]
11 200.637817 -220.002121 -148.787384 -103.552460 9.527719 -52.625782 332.857574
12 200.637817 -220.002121 -148.787384 -103.728981 9.621651 -53.394844 332.857574
13 200.637817 -220.002121 -148.787384 -103.906792 9.713223 -54.164326 332.857574
[R_Toe3_01]
11 188.606735 -220.092957 191.126343 -69.258202 -21.766088 -58.350777 347.192566
12 188.606735 -220.092957 191.126343 -69.055237 -21.719091 -59.135159 347.192566
13 188.606735 -220.092957 191.126343 -68.935219 -21.642773 -59.712063 347.192566
[planeLockWeightRight]
11 647.999268 0.000610 -0.000267 -0.011823 -0.004379 -0.000027 647.999268
12 351.999329 0.000000 -0.000076 -0.011823 -0.004379 -0.000027 351.999359
13 103.999588 0.000000 -0.000038 -0.011823 -0.004379 -0.000027 103.999588
[R_Toe1_02]
11 413.762085 0.000477 -0.000119 0.001394 -24.644289 0.001394 413.762085
12 413.762085 0.000477 -0.000119 0.001398 -24.123133 0.001398 413.762085
13 413.762085 0.000477 -0.000119 0.001398 -24.143360 0.001398 413.762085
[R_Toe1_03]
11 464.317810 0.000000 0.001088 0.006654 69.683723 0.006654 464.317810
12 464.317810 0.000000 0.001088 0.007859 72.823425 0.007859 464.317810
13 464.317810 0.000000 0.001088 0.007804 72.700584 0.007804 464.317810
[R_Toe2_02]
11 342.234741 -0.000954 0.000238 -0.002332 -80.025475 -0.002332 342.234741
12 342.234741 -0.000954 0.000238 -0.002332 -80.042648 -0.002332 342.234741
13 342.234741 -0.000954 0.000238 -0.002332 -80.059837 -0.002332 342.234741
[R_Toe2_03]
11 420.210846 0.000715 -0.000268 -179.995789 62.510330 -179.999374 420.210846
12 420.210846 0.000715 -0.000268 -179.995804 62.350121 -179.999390 420.210846
13 420.210846 0.000715 -0.000268 -179.995819 62.189899 -179.999405 420.210846
[R_Toe3_02]
11 329.270355 -0.000477 -0.000954 0.001176 -82.490883 0.001176 329.270355
12 329.270355 -0.000477 -0.000954 0.001176 -82.471184 0.001176 329.270355
13 329.270355 -0.000477 -0.000954 0.001176 -82.530342 0.001176 329.270355
[R_Toe3_03]
11 439.137939 0.000238 0.001431 -179.998566 69.386436 -179.995010 439.137939
12 439.137939 0.000238 0.001431 -179.998596 69.144325 -179.995041 439.137939
13 439.137939 0.000238 0.001431 -179.998642 68.902191 -179.995087 439.137939
[Rear_Leg02]
11 1162.777710 -0.029802 0.005960 -7.011025 22.337072 -108.844215 1162.777710
12 1162.777710 -0.029802 0.005960 -10.004990 28.911936 -125.497993 1162.777710
13 1162.777710 -0.029802 0.005960 -13.576090 32.959999 -140.750214 1162.777710
[Rear_Leg03]
11 607.192505 -0.013351 -0.073195 0.010554 -0.004978 66.857681 607.192505
12 607.192505 -0.013351 -0.073195 0.010545 -0.004996 67.059052 607.192505
13 607.192505 -0.013351 -0.073195 0.010507 -0.005076 67.927444 607.192505
[Rear_Leg04]
11 995.874512 -0.020504 -0.011921 -0.043721 -0.017618 63.168541 995.874573
12 995.874512 -0.020504 -0.011921 -0.043830 -0.017347 63.878197 995.874573
13 995.874512 -0.020504 -0.011921 -0.039945 -0.019324 65.729248 995.874573
[Rear_Foot]
11 3096.176270 -0.067472 -0.041425 102.217003 69.689102 -67.078217 3096.176270
12 3096.176270 -0.067472 -0.041425 94.398521 64.647171 -72.108086 3096.176270
13 3096.176270 -0.067472 -0.041425 88.484116 61.418388 -75.685440 3096.176270
[planeAlignerCenter]
11 6.582996 -49.294228 -692.998047 0.001750 -0.001564 173.590332 694.780212
12 -21.525806 -71.850159 -649.848450 0.001825 -0.001477 167.968109 654.162720
13 -23.813843 -86.627754 -651.290405 0.001866 -0.001425 164.729218 657.457703
[Rear_Toe1_01]
11 0.653352 83.966492 -371.173737 -0.415275 17.104654 82.425987 380.553192
12 0.653352 83.966492 -371.173737 -0.163749 13.449883 77.375259 380.553192
13 0.653352 83.966492 -371.173737 -0.429583 13.285942 73.271835 380.553192
[Rear_Toe2_01]
11 178.200760 -294.826019 -362.060547 -1.379975 45.421383 -81.376717 499.765686
12 178.200760 -294.826019 -362.060547 -2.638585 42.573189 -90.722183 499.765686
13 178.200760 -294.826019 -362.060547 -2.939404 42.105717 -95.090462 499.765686
[Rear_Toe3_01]
11 -153.359680 -308.780914 -362.060852 -0.444247 45.680477 -117.616585 499.952881
12 -153.359680 -308.780914 -362.060852 -1.513327 42.880917 -126.120552 499.952881
13 -153.359680 -308.780914 -362.060852 -1.731534 42.773598 -130.139755 499.952881
[planeLockWeightCenter]
11 1000.000122 0.000323 -0.000051 -0.011814 -0.004373 -0.000015 1000.000122
12 1000.000122 0.000329 -0.000052 -0.011814 -0.004373 -0.000015 1000.000122
13 1000.000122 0.000335 -0.000053 -0.011814 -0.004373 -0.000015 1000.000122
[Rear_Toe1_02]
11 379.707825 0.194073 0.000477 -0.004646 -32.418938 -0.004646 379.707855
12 379.707825 0.194073 0.000477 -0.006672 -31.440334 -0.006672 379.707855
13 379.707825 0.194073 0.000477 -0.006677 -31.291420 -0.006677 379.707855
[Rear_Toe1_03]
11 500.129700 0.165701 0.000119 -179.983780 85.449463 -179.987274 500.129761
12 500.129700 0.165701 0.000119 -179.992081 79.297676 -179.995590 500.129761
13 500.129700 0.165701 0.000119 -179.992966 77.497978 -179.996475 500.129761
[Rear_Toe2_02]
11 340.494507 0.000238 -0.000954 0.001184 -75.103844 0.001184 340.494507
12 340.494507 0.000238 -0.000954 0.001186 -73.096115 0.001186 340.494507
13 340.494507 0.000238 -0.000954 0.001193 -69.691895 0.001193 340.494507
[Rear_Toe2_03]
11 433.103577 0.000000 0.000238 0.011621 78.407715 0.011621 433.103546
12 433.103577 0.000000 0.000238 0.008970 74.964645 0.008970 433.103546
13 433.103577 0.000000 0.000238 0.006688 69.765915 0.006688 433.103546
[Rear_Toe3_02]
11 340.494141 -0.000358 -0.000477 0.001181 -77.151711 0.001181 340.494171
12 340.494141 -0.000358 -0.000477 0.001183 -75.509651 0.001183 340.494171
13 340.494141 -0.000358 -0.000477 0.001185 -73.867569 0.001185 340.494171
[Rear_Toe3_03]
11 433.103577 0.001431 -0.000238 0.016969 82.068428 0.016969 433.103546
12 433.103577 0.001431 -0.000238 0.012430 79.161293 0.012430 433.103546
13 433.103577 0.001431 -0.000238 0.009807 76.254120 0.009807 433.103546
[Back_Bone]
11 1312.175781 -701.934692 0.000954 -1.700753 -3.550500 -81.080811 1488.125488
12 1312.175781 -701.934692 0.000954 -1.193589 -3.647466 -80.542175 1488.125488
13 1312.175781 -701.934692 0.000954 -0.512019 -3.647213 -80.337898 1488.125488
[Head]
11 1406.159424 809.709290 0.001431 -3.874018 0.655632 -0.416398 1622.625488
12 1406.159424 809.709290 0.001431 -3.723207 0.332094 -0.033869 1622.625488
13 1406.159424 809.709290 0.001431 -3.472824 0.020403 1.216778 1622.625488
[Motor_Bone]
11 1158.364380 -417.834747 0.000477 -1.845118 -0.485017 -106.470413 1231.419434
12 1158.364380 -417.834747 0.000477 -1.729657 -0.306488 -106.290817 1231.419434
13 1158.364380 -417.834747 0.000477 -1.440879 0.000172 -105.983208 1231.419434
[Ping_Mechanism]
11 1173.559448 -389.027710 22.165350 0.000103 -0.000053 82.120995 1236.557983
12 1180.354858 -395.000610 33.527821 0.000103 -0.000053 82.120995 1245.145508
13 1184.640747 -397.071503 43.929222 0.000103 -0.000053 82.120995 1250.187744
[BN_LookIK]
11 193.241119 1380.371704 -0.002861 0.000000 89.965736 -31.038179 1393.832153
12 193.241119 1380.371704 -0.002861 0.000000 89.965736 -31.038179 1393.832153
13 193.241119 1380.371704 -0.002861 0.000000 89.965736 -31.038179 1393.832153
[bottomMouth]
11 -435.092926 615.759399 -0.000954 -0.000022 0.000016 73.527184 753.966492
12 -435.092926 615.759399 -0.000954 -0.000022 0.000016 73.527184 753.966492
13 -435.092926 615.759399 -0.000954 -0.000022 0.000016 73.527184 753.966492
[L_Mouth01]
11 554.440979 7.658243 838.222046 150.204178 23.759130 109.605339 1005.027161
12 554.440979 7.658243 838.222046 150.204178 23.759130 109.605339 1005.027161
13 554.440979 7.658243 838.222046 150.204178 23.759130 109.605339 1005.027161
[L_mouthFront]
11 551.629089 934.514771 339.150421 0.000081 2.804060 79.119301 1136.941284
12 551.629089 934.514771 339.150421 0.000081 2.804060 79.119301 1136.941284
13 551.629089 934.514771 339.150421 0.000081 2.804060 79.119301 1136.941284
[mouthGun]
11 55.332661 1627.420898 0.000000 0.000023 0.000009 -11.038128 1628.361328
12 55.332661 1627.420898 0.000000 0.000023 0.000009 -11.038128 1628.361328
13 55.332661 1627.420898 0.000000 0.000023 0.000009 -11.038128 1628.361328
[R_Mouth01]
11 554.442383 7.659197 -838.223938 29.795891 -23.759109 109.605331 1005.029541
12 554.442383 7.659197 -838.223938 29.795891 -23.759109 109.605331 1005.029541
13 554.442383 7.659197 -838.223938 29.795891 -23.759109 109.605331 1005.029541
[R_mouthFront]
11 551.629089 934.514282 -339.151367 0.000029 -2.803930 79.119133 1136.941162
12 551.629089 934.514282 -339.151367 0.000029 -2.803930 79.119133 1136.941162
13 551.629089 934.514282 -339.151367 0.000029 -2.803930 79.119133 1136.941162
[TopMouth]
11 461.269867 -56.106091 -0.008583 -0.000059 -0.000268 92.025169 464.669525
12 461.269867 -56.106091 -0.008583 -0.000059 -0.000268 92.025169 464.669525
13 461.269867 -56.106091 -0.008583 -0.000059 -0.000268 92.025169 464.669525
[weapon_bone]
11 -987.239868 1448.372803 0.001431 0.000000 89.965736 -31.038221 1752.833740
12 -987.239868 1448.372803 0.001431 0.000000 89.965736 -31.038221 1752.833740
13 -987.239868 1448.372803 0.001431 0.000000 89.965736 -31.038221 1752.833740
